<svg xmlns="http://www.w3.org/2000/svg" version="1.1" xmlns:xlink="http://www.w3.org/1999/xlink" width="250" height="219"><svg xmlns="http://www.w3.org/2000/svg" version="1.1" xmlns:xlink="http://www.w3.org/1999/xlink" width="250" height="219"><svg width="250" height="219" viewBox="0 0 250 219" fill="none" xmlns="http://www.w3.org/2000/svg">
<path d="M130.849 215.616C128.252 220.128 121.748 220.128 119.151 215.616L0.911086 10.1304C-1.68112 5.62545 1.56678 -4.55524e-07 6.75994 0L243.24 2.07432e-05C248.433 2.11987e-05 251.681 5.62546 249.089 10.1304L130.849 215.616Z" fill="#0064E6"></path>
<path fill-rule="evenodd" clip-rule="evenodd" d="M83.3986 43.8074C97.1984 41.4614 111.17 40.2851 125.166 40.2908C139.399 40.2908 153.357 41.497 166.939 43.8074C169.139 44.189 171.134 45.3408 172.569 47.0586C174.004 48.7763 174.788 50.9491 174.78 53.1918V58.528C174.78 62.5945 173.171 66.4942 170.308 69.3692L138.85 100.967C138.141 101.68 137.579 102.525 137.196 103.456C136.812 104.386 136.615 105.384 136.616 106.391V121.351C136.616 124.2 135.828 126.992 134.337 129.415C132.847 131.838 130.715 133.796 128.179 135.07L119.238 139.558C118.656 139.85 118.01 139.987 117.36 139.958C116.71 139.928 116.079 139.732 115.526 139.389C114.973 139.045 114.516 138.565 114.2 137.995C113.883 137.424 113.717 136.782 113.717 136.128V106.391C113.715 104.358 112.91 102.409 111.478 100.973L80.0299 69.3641C77.1668 66.489 75.5578 62.5894 75.557 58.5229V53.1918C75.557 48.6069 78.8086 44.5894 83.3986 43.8074Z" fill="white"></path>
</svg></svg><style>@media (prefers-color-scheme: light) { :root { filter: none; } }
@media (prefers-color-scheme: dark) { :root { filter: none; } }
</style></svg>